<?xml version="1.0" encoding="UTF-8" standalone="no"?>
<!DOCTYPE svg PUBLIC "-//W3C//DTD SVG 1.1//EN" "http://www.w3.org/Graphics/SVG/1.1/DTD/svg11.dtd">
<svg width="100%" height="100%" viewBox="0 0 128 128" version="1.1" xmlns="http://www.w3.org/2000/svg" xmlns:xlink="http://www.w3.org/1999/xlink" xml:space="preserve" xmlns:serif="http://www.serif.com/" style="fill-rule:evenodd;clip-rule:evenodd;stroke-linecap:round;stroke-miterlimit:1;">
    <rect id="Artboard1" x="0" y="-0" width="128" height="128" style="fill:none;"/>
    <g id="Artboard11" serif:id="Artboard1">
        <g transform="matrix(0.329258,0,0,0.356716,-117.204,-115.396)">
            <g transform="matrix(2.85676,0,0,2.80335,372.805,323.495)">
                <rect x="31.216" y="58.341" width="62.15" height="55.197" style="fill:white;"/>
            </g>
            <g transform="matrix(1,0,0,1,-16.5402,-33.8383)">
                <path d="M685.381,616.956C685.416,616.833 685.435,616.709 685.481,616.587C685.578,616.329 695.219,590.144 685.023,570.589C679.981,560.919 670.748,554.309 657.582,550.945L657.567,550.941C655.578,550.429 654.178,548.622 654.178,546.569C654.178,545.681 654.439,544.813 654.93,544.073C655.267,541.024 655.425,537.959 655.406,534.892L655.415,534.484C655.525,529.705 655.38,524.145 653.454,519.138C650.824,512.288 645.364,507.85 641.249,505.332C638.491,503.656 635.542,502.316 632.465,501.341C631.668,501.131 625.996,500.085 623.573,499.638C620.679,499.105 618.835,498.759 617.829,497.432C595.316,516.96 569.033,531.662 540.612,540.628C547.344,549.253 551.547,561.363 551.547,574.765C551.668,585.379 548.844,595.822 543.391,604.929C556.669,600.908 573.134,594.403 586.491,584.361C586.001,581.186 585.756,577.978 585.757,574.765C585.757,548.648 601.694,527.398 621.282,527.398C640.871,527.398 656.807,548.648 656.807,574.765C656.807,600.882 640.871,622.132 621.282,622.132C605.476,622.132 592.054,608.293 587.457,589.229C571.869,600.406 552.819,607.133 538.956,610.897C532.763,617.897 524.759,622.132 516.022,622.132C510.77,622.097 505.631,620.592 501.189,617.788C476.489,620.193 453.402,620.528 445.875,620.571C441.226,622.656 425.027,632.52 422.911,634.16C413.331,642.831 408.371,655.524 409.534,668.392C410.968,681.479 418.656,693.091 430.144,699.52C441.37,705.701 454.646,706.83 468.324,705.785C515.09,698.23 650.634,671.963 685.381,616.956ZM623.577,640.698C612.564,660.603 588.925,673.729 564.911,673.731C563.336,673.731 561.763,673.674 560.191,673.56C557.589,673.37 555.002,673.017 552.444,672.505L552.446,672.505C535.622,669.13 519.987,658.784 507.234,642.59C505.029,639.79 504.183,636.808 504.853,634.189C505.492,631.776 507.345,629.864 509.736,629.147C511.199,628.801 512.716,628.746 514.201,628.984C546.939,632.358 576.4,632.72 604.277,630.083C605.854,629.933 607.44,629.713 609.029,629.495C611.328,629.178 613.703,628.85 616.071,628.726C619.639,628.541 622.648,629.9 624.071,632.365C625.405,634.678 625.227,637.713 623.577,640.698ZM724.381,664.181C723.279,682.234 703.986,697.291 685.495,702.835C667.452,708.245 647.611,707.344 628.419,706.481C624.674,706.311 620.952,706.142 617.269,706.02C594.717,705.242 572.227,703.2 549.904,699.906C547.563,699.562 545.087,699.036 542.463,698.481C540.123,697.984 537.754,697.486 535.373,697.086C591.945,683.356 661.246,659.585 687.411,622.048C687.541,622.133 687.674,622.21 687.812,622.281C713.059,633.916 725.363,648.013 724.381,664.181ZM450.479,614.847C446.175,597.102 447.57,582.477 454.621,571.375C464.169,556.344 481.213,552.721 481.372,552.688C483.477,552.271 485.009,550.407 485.009,548.261C485.009,547.726 484.913,547.194 484.727,546.692C479.286,532.031 479.286,518.861 484.729,507.546C493.908,488.457 515.853,480.203 518.313,479.329C520.365,479.655 522.441,479.805 524.518,479.779C533.979,479.779 548.578,477.455 560.149,471.109C560.872,470.714 561.324,469.953 561.324,469.129C561.324,467.892 560.305,466.874 559.068,466.874C558.688,466.874 558.314,466.97 557.981,467.153C545.056,474.24 529.017,475.679 521.641,475.25C521.666,474.926 521.656,474.6 521.611,474.279C520.666,468.065 519.593,461.023 520.653,455.15C521.342,451.34 523.567,448.739 526.382,445.446C527.829,443.806 529.192,442.096 530.468,440.32C536.981,430.984 534.783,421.736 532.842,413.576C532.54,412.304 532.234,411.016 531.952,409.711C531.501,407.603 531.703,405.746 532.468,404.978C537.827,399.593 561.129,410.53 575.473,420.741C589.009,430.422 599.797,443.459 606.775,458.567C611.283,468.293 614.141,480.555 616.484,492.58C607.888,500.471 579.565,524.207 537.459,536.894L537.517,537.086C531.544,531.014 524.095,527.398 516.022,527.398C496.434,527.398 480.498,548.648 480.498,574.765C480.498,590.915 486.595,605.196 495.878,613.75C477.135,615.39 459.912,615.873 450.594,616.012C450.607,615.627 450.57,615.241 450.484,614.865L450.484,614.863L450.479,614.847Z" style="fill:rgb(100,65,164);fill-rule:nonzero;"/>
            </g>
            <g transform="matrix(1,0,0,1,-16.5402,-33.8383)">
                <path d="M516.21,551.082C525.553,551.082 533.127,561.938 533.127,575.329C533.127,588.721 525.553,599.577 516.21,599.577C506.868,599.577 499.294,588.721 499.294,575.329C499.294,561.938 506.868,551.082 516.21,551.082ZM733.385,664.729C731.971,687.941 708.911,705.234 688.085,711.479C675.763,715.173 662.997,716.162 650.241,716.162C642.798,716.162 635.359,715.825 628.011,715.492C624.302,715.325 620.617,715.16 616.971,715.038C594.081,714.248 571.254,712.176 548.596,708.831C545.97,708.448 543.237,707.866 540.591,707.305C534.699,706.056 528.606,704.761 523.461,705.536C517.357,706.457 510.892,707.774 504.049,709.166C478.357,714.404 449.233,720.329 425.792,707.424C410.091,698.78 400.304,682.219 400.304,664.297C400.304,650.153 406.399,636.674 417.019,627.332C418.417,626.085 426.783,620.99 430.616,618.717C435.329,615.922 438.55,614.127 440.825,613.001C437.061,594.466 439.16,578.811 447.079,566.421C455.37,553.454 467.852,547.602 474.707,545.238C470.006,529.956 470.647,515.958 476.632,503.566C485.678,484.825 504.298,475.343 512.157,472.043C511.335,466.226 510.681,459.607 511.776,453.547C512.897,447.333 516.419,443.214 519.527,439.582C520.793,438.1 521.992,436.699 523.067,435.157C527.269,429.137 525.855,423.191 524.064,415.663C523.747,414.326 523.426,412.975 523.133,411.604C522.005,406.355 523.08,401.619 526.076,398.61C539.73,384.9 576.554,410.434 580.706,413.391C595.518,423.981 607.324,438.244 614.96,454.774C619.848,465.316 622.87,478.188 625.326,490.788C632.287,492.072 634.417,492.495 635.207,492.746C638.973,493.939 642.582,495.581 645.956,497.636C653.569,502.292 659.076,508.607 661.877,515.903C664.38,522.414 664.558,529.363 664.433,534.692L664.428,535.029C664.373,538.703 664.263,541.405 664.082,543.43C677.624,547.782 687.356,555.516 693.048,566.465C702.621,584.88 697.821,606.926 695.213,615.816C721.726,628.896 734.564,645.339 733.385,664.729L733.385,664.729ZM450.479,614.847L450.484,614.863L450.484,614.865C450.57,615.241 450.607,615.627 450.594,616.012C459.912,615.873 477.135,615.39 495.878,613.75C486.595,605.196 480.498,590.915 480.498,574.765C480.498,548.648 496.434,527.398 516.022,527.398C524.095,527.398 531.544,531.014 537.517,537.086L537.459,536.894C579.565,524.207 607.888,500.471 616.484,492.58C614.141,480.556 611.283,468.293 606.775,458.567C599.797,443.459 589.009,430.422 575.473,420.741C561.129,410.53 537.827,399.593 532.468,404.978C531.703,405.746 531.501,407.603 531.952,409.711C532.234,411.017 532.54,412.304 532.842,413.576C534.783,421.736 536.981,430.984 530.468,440.32C529.192,442.096 527.829,443.806 526.382,445.446C523.567,448.739 521.342,451.34 520.653,455.151C519.593,461.023 520.666,468.065 521.611,474.279C521.656,474.6 521.666,474.926 521.641,475.25C529.017,475.679 545.056,474.24 557.981,467.153C558.314,466.97 558.688,466.874 559.068,466.874C560.305,466.874 561.324,467.892 561.324,469.129C561.324,469.953 560.872,470.714 560.149,471.109C548.578,477.455 533.979,479.779 524.518,479.779C522.441,479.805 520.365,479.655 518.313,479.329C515.853,480.203 493.908,488.457 484.729,507.546C479.286,518.861 479.286,532.031 484.727,546.692C484.913,547.194 485.009,547.726 485.009,548.261C485.009,550.407 483.477,552.271 481.372,552.688C481.213,552.721 464.169,556.344 454.621,571.375C447.57,582.477 446.175,597.102 450.479,614.847ZM516.022,531.91C498.921,531.91 485.009,551.135 485.009,574.765C485.009,598.395 498.921,617.62 516.022,617.62C533.124,617.62 547.036,598.395 547.036,574.765C547.036,551.134 533.124,531.91 516.022,531.91ZM685.381,616.956C685.416,616.833 685.435,616.709 685.481,616.587C685.578,616.329 695.219,590.144 685.023,570.589C679.981,560.919 670.748,554.309 657.582,550.945L657.567,550.941C655.578,550.429 654.178,548.622 654.178,546.569C654.178,545.681 654.439,544.813 654.93,544.073C655.267,541.024 655.425,537.959 655.406,534.892L655.415,534.484C655.525,529.705 655.38,524.145 653.454,519.138C650.824,512.288 645.364,507.85 641.249,505.332C638.491,503.656 635.542,502.316 632.465,501.341C631.668,501.131 625.996,500.085 623.573,499.638C620.679,499.105 618.835,498.759 617.829,497.432C595.316,516.96 569.033,531.662 540.612,540.628C547.344,549.253 551.547,561.363 551.547,574.765C551.668,585.379 548.844,595.822 543.391,604.929C556.669,600.908 573.134,594.403 586.491,584.361C586.001,581.186 585.756,577.978 585.757,574.765C585.757,548.648 601.694,527.398 621.282,527.398C640.871,527.398 656.807,548.648 656.807,574.765C656.807,600.882 640.871,622.132 621.282,622.132C605.476,622.132 592.054,608.293 587.457,589.229C571.869,600.406 552.819,607.133 538.956,610.897C532.763,617.897 524.759,622.132 516.022,622.132C510.77,622.097 505.631,620.592 501.189,617.788C476.489,620.193 453.402,620.528 445.875,620.571C441.226,622.656 425.027,632.52 422.911,634.16C413.331,642.831 408.371,655.524 409.534,668.392C410.968,681.479 418.657,693.091 430.144,699.52C441.37,705.701 454.646,706.83 468.324,705.785C515.09,698.23 650.634,671.963 685.381,616.956ZM621.282,617.62C638.384,617.62 652.296,598.395 652.296,574.765C652.296,551.134 638.384,531.91 621.282,531.91C604.18,531.91 590.268,551.135 590.268,574.765C590.268,598.395 604.18,617.62 621.282,617.62ZM687.812,622.281C687.674,622.21 687.541,622.133 687.411,622.048C661.246,659.585 591.945,683.356 535.373,697.086C537.754,697.486 540.123,697.984 542.463,698.481C545.087,699.036 547.563,699.562 549.904,699.906C572.227,703.2 594.717,705.242 617.269,706.021C620.952,706.142 624.674,706.311 628.419,706.481C647.611,707.344 667.452,708.245 685.495,702.836C703.986,697.291 723.279,682.234 724.381,664.181C725.363,648.013 713.059,633.916 687.812,622.281ZM621.469,599.576C630.812,599.576 638.386,588.721 638.386,575.329C638.386,561.938 630.812,551.082 621.469,551.082C612.126,551.082 604.553,561.938 604.553,575.329C604.553,588.721 612.126,599.577 621.469,599.577ZM624.071,632.365C625.405,634.678 625.227,637.713 623.577,640.698C612.564,660.603 588.925,673.729 564.911,673.731C563.336,673.731 561.763,673.674 560.191,673.56C557.589,673.37 555.002,673.017 552.444,672.504L552.446,672.504C535.622,669.13 519.987,658.784 507.234,642.59C505.029,639.79 504.183,636.808 504.853,634.189C505.492,631.776 507.345,629.863 509.736,629.147C511.199,628.801 512.716,628.746 514.201,628.984C546.939,632.358 576.4,632.72 604.277,630.083C605.854,629.933 607.44,629.713 609.029,629.495C611.328,629.178 613.703,628.85 616.071,628.726C619.639,628.541 622.648,629.9 624.071,632.365ZM620.163,634.621C619.504,633.484 617.685,633.158 616.304,633.233C614.13,633.345 611.951,633.645 609.645,633.962C607.993,634.191 606.343,634.418 604.702,634.572C576.528,637.244 546.774,636.878 513.736,633.471C513.189,633.403 512.639,633.363 512.089,633.352C511.716,633.344 511.344,633.388 510.983,633.482C510.127,633.755 509.464,634.442 509.223,635.308C508.784,637.024 510.163,639.019 510.776,639.797C519.201,650.495 533.424,664.088 553.331,668.081L553.334,668.081C555.705,668.557 558.104,668.885 560.517,669.062C584.07,670.756 608.892,657.925 619.63,638.513C620.289,637.323 620.773,635.676 620.163,634.621Z" style="fill-rule:nonzero;"/>
            </g>
        </g>
    </g>
</svg>
